<svg width="222" height="50" viewBox="0 0 222 50" fill="none" xmlns="http://www.w3.org/2000/svg">
<rect width="222" height="50" rx="25" fill="#F1F1F1"/>
<path fill-rule="evenodd" clip-rule="evenodd" d="M197.285 11.3638C203.507 11.3638 208.568 16.5075 208.568 22.8312C208.568 25.8147 207.442 28.5358 205.598 30.5781L209.226 34.2571C209.565 34.6022 209.567 35.1603 209.227 35.5054C209.058 35.6797 208.834 35.7656 208.612 35.7656C208.391 35.7656 208.168 35.6797 207.998 35.5077L204.326 31.7869C202.395 33.3588 199.946 34.2999 197.285 34.2999C191.062 34.2999 186 29.1549 186 22.8312C186 16.5075 191.062 11.3638 197.285 11.3638ZM197.285 13.1302C192.021 13.1302 187.738 17.4814 187.738 22.8312C187.738 28.1811 192.021 32.5335 197.285 32.5335C202.548 32.5335 206.83 28.1811 206.83 22.8312C206.83 17.4814 202.548 13.1302 197.285 13.1302Z" fill="#1A1A1A"/>
<path d="M20.064 20.768C19.904 20.5867 19.7173 20.4267 19.504 20.288C19.2907 20.1387 19.0507 20.0107 18.784 19.904C18.5173 19.7973 18.2293 19.712 17.92 19.648C17.6213 19.584 17.3013 19.552 16.96 19.552C15.968 19.552 15.2373 19.744 14.768 20.128C14.3093 20.5013 14.08 21.0133 14.08 21.664C14.08 22.112 14.1867 22.464 14.4 22.72C14.624 22.976 14.9707 23.184 15.44 23.344C15.9093 23.504 16.5067 23.6693 17.232 23.84C18.0427 24.0107 18.7413 24.2133 19.328 24.448C19.9147 24.6827 20.368 25.0027 20.688 25.408C21.008 25.8027 21.168 26.3413 21.168 27.024C21.168 27.5467 21.0667 28 20.864 28.384C20.6613 28.768 20.3787 29.088 20.016 29.344C19.6533 29.6 19.2213 29.792 18.72 29.92C18.2187 30.0373 17.6693 30.096 17.072 30.096C16.4853 30.096 15.92 30.0373 15.376 29.92C14.8427 29.792 14.336 29.6107 13.856 29.376C13.376 29.1307 12.928 28.8213 12.512 28.448L13.072 27.536C13.2747 27.7493 13.5147 27.952 13.792 28.144C14.08 28.3253 14.3947 28.4907 14.736 28.64C15.088 28.7893 15.4613 28.9067 15.856 28.992C16.2613 29.0667 16.6773 29.104 17.104 29.104C18.0107 29.104 18.7147 28.9387 19.216 28.608C19.728 28.2773 19.984 27.7867 19.984 27.136C19.984 26.6667 19.856 26.2933 19.6 26.016C19.344 25.728 18.96 25.4933 18.448 25.312C17.936 25.1307 17.3067 24.9547 16.56 24.784C15.7707 24.6027 15.104 24.4 14.56 24.176C14.016 23.952 13.6053 23.6587 13.328 23.296C13.0613 22.9227 12.928 22.432 12.928 21.824C12.928 21.12 13.0987 20.528 13.44 20.048C13.792 19.5573 14.272 19.1893 14.88 18.944C15.488 18.688 16.1867 18.56 16.976 18.56C17.4773 18.56 17.9413 18.6133 18.368 18.72C18.8053 18.816 19.2053 18.96 19.568 19.152C19.9413 19.344 20.288 19.584 20.608 19.872L20.064 20.768ZM26.5188 30.16C25.9214 30.16 25.3668 30.048 24.8548 29.824C24.3428 29.5893 23.9001 29.2747 23.5268 28.88C23.1534 28.4747 22.8601 28.0107 22.6468 27.488C22.4441 26.9653 22.3428 26.4053 22.3428 25.808C22.3428 25.0293 22.5188 24.3147 22.8708 23.664C23.2334 23.0133 23.7294 22.496 24.3588 22.112C24.9881 21.7173 25.7028 21.52 26.5028 21.52C27.3241 21.52 28.0388 21.7173 28.6468 22.112C29.2654 22.5067 29.7508 23.0293 30.1028 23.68C30.4548 24.32 30.6308 25.024 30.6308 25.792C30.6308 25.8773 30.6308 25.9627 30.6308 26.048C30.6308 26.1227 30.6254 26.1813 30.6148 26.224H23.4788C23.5321 26.8213 23.6974 27.3547 23.9748 27.824C24.2628 28.2827 24.6308 28.6507 25.0788 28.928C25.5374 29.1947 26.0334 29.328 26.5668 29.328C27.1108 29.328 27.6228 29.1893 28.1028 28.912C28.5934 28.6347 28.9348 28.272 29.1268 27.824L30.0708 28.08C29.9001 28.4747 29.6388 28.832 29.2868 29.152C28.9348 29.472 28.5188 29.7227 28.0388 29.904C27.5694 30.0747 27.0628 30.16 26.5188 30.16ZM23.4468 25.44H29.6068C29.5641 24.832 29.3988 24.2987 29.1108 23.84C28.8334 23.3813 28.4654 23.024 28.0068 22.768C27.5588 22.5013 27.0628 22.368 26.5188 22.368C25.9748 22.368 25.4788 22.5013 25.0308 22.768C24.5828 23.024 24.2148 23.3867 23.9268 23.856C23.6494 24.3147 23.4894 24.8427 23.4468 25.44ZM31.6374 27.6C31.6374 27.0773 31.7867 26.6293 32.0854 26.256C32.384 25.872 32.7947 25.5787 33.3174 25.376C33.8507 25.1627 34.464 25.056 35.1574 25.056C35.5627 25.056 35.984 25.088 36.4214 25.152C36.8587 25.216 37.248 25.312 37.5894 25.44V24.736C37.5894 24.032 37.3814 23.472 36.9654 23.056C36.5494 22.64 35.9734 22.432 35.2374 22.432C34.7894 22.432 34.3467 22.5173 33.9094 22.688C33.4827 22.848 33.0347 23.088 32.5654 23.408L32.1494 22.64C32.6934 22.2667 33.2267 21.9893 33.7494 21.808C34.272 21.616 34.8054 21.52 35.3494 21.52C36.3734 21.52 37.184 21.8133 37.7814 22.4C38.3787 22.9867 38.6774 23.7973 38.6774 24.832V28.688C38.6774 28.8373 38.7094 28.9493 38.7734 29.024C38.8374 29.088 38.9387 29.1253 39.0774 29.136V30C38.96 30.0107 38.8587 30.0213 38.7734 30.032C38.688 30.0427 38.624 30.0427 38.5814 30.032C38.3147 30.0213 38.112 29.936 37.9734 29.776C37.8347 29.616 37.76 29.4453 37.7494 29.264L37.7334 28.656C37.36 29.136 36.8747 29.5093 36.2774 29.776C35.68 30.032 35.072 30.16 34.4534 30.16C33.92 30.16 33.4347 30.048 32.9974 29.824C32.5707 29.5893 32.2347 29.28 31.9894 28.896C31.7547 28.5013 31.6374 28.0693 31.6374 27.6ZM37.2214 28.24C37.3387 28.0907 37.4294 27.9467 37.4934 27.808C37.5574 27.6693 37.5894 27.5467 37.5894 27.44V26.224C37.2267 26.0853 36.848 25.9787 36.4534 25.904C36.0694 25.8293 35.68 25.792 35.2854 25.792C34.5067 25.792 33.8774 25.9467 33.3974 26.256C32.9174 26.5653 32.6774 26.9867 32.6774 27.52C32.6774 27.8293 32.7574 28.1227 32.9174 28.4C33.0774 28.6667 33.312 28.8907 33.6214 29.072C33.9307 29.2427 34.2934 29.328 34.7094 29.328C35.232 29.328 35.7174 29.2267 36.1654 29.024C36.624 28.8213 36.976 28.56 37.2214 28.24ZM45.1881 22.624C44.4628 22.6453 43.8228 22.848 43.2681 23.232C42.7241 23.616 42.3401 24.144 42.1161 24.816V30H41.0281V21.664H42.0521V23.664C42.3401 23.0773 42.7188 22.6027 43.1881 22.24C43.6681 21.8773 44.1748 21.6747 44.7081 21.632C44.8148 21.6213 44.9055 21.616 44.9801 21.616C45.0655 21.616 45.1348 21.6213 45.1881 21.632V22.624ZM49.9879 30.16C49.3799 30.16 48.8199 30.048 48.3079 29.824C47.8065 29.5893 47.3639 29.2693 46.9799 28.864C46.6065 28.4587 46.3132 27.9947 46.0999 27.472C45.8972 26.9493 45.7959 26.3947 45.7959 25.808C45.7959 25.0187 45.9719 24.2987 46.3239 23.648C46.6759 22.9973 47.1665 22.48 47.7959 22.096C48.4252 21.712 49.1505 21.52 49.9719 21.52C50.7505 21.52 51.4385 21.7013 52.0359 22.064C52.6332 22.416 53.0759 22.896 53.3639 23.504L52.3079 23.84C52.0732 23.4133 51.7425 23.0827 51.3159 22.848C50.8999 22.6027 50.4359 22.48 49.9239 22.48C49.3692 22.48 48.8625 22.624 48.4039 22.912C47.9452 23.2 47.5772 23.5947 47.2999 24.096C47.0332 24.5973 46.8999 25.168 46.8999 25.808C46.8999 26.4373 47.0385 27.008 47.3159 27.52C47.5932 28.032 47.9612 28.4427 48.4199 28.752C48.8785 29.0507 49.3852 29.2 49.9399 29.2C50.3025 29.2 50.6492 29.136 50.9799 29.008C51.3212 28.88 51.6145 28.7093 51.8599 28.496C52.1159 28.272 52.2865 28.032 52.3719 27.776L53.4439 28.096C53.2945 28.4907 53.0439 28.848 52.6919 29.168C52.3505 29.4773 51.9452 29.7227 51.4759 29.904C51.0172 30.0747 50.5212 30.16 49.9879 30.16ZM62.1611 30H61.0731V25.344C61.0731 24.4053 60.9078 23.7013 60.5771 23.232C60.2465 22.752 59.7718 22.512 59.1531 22.512C58.7478 22.512 58.3425 22.6187 57.9371 22.832C57.5425 23.0347 57.1905 23.3173 56.8811 23.68C56.5825 24.032 56.3691 24.4373 56.2411 24.896V30H55.1531V18.32H56.2411V23.552C56.5718 22.9333 57.0305 22.4427 57.6171 22.08C58.2145 21.7067 58.8491 21.52 59.5211 21.52C60.0011 21.52 60.4065 21.6053 60.7371 21.776C61.0785 21.9467 61.3505 22.1973 61.5531 22.528C61.7665 22.848 61.9211 23.2267 62.0171 23.664C62.1131 24.0907 62.1611 24.576 62.1611 25.12V30ZM64.3213 30V28.432H65.2653V30H64.3213ZM67.3525 30V28.432H68.2965V30H67.3525ZM70.3838 30V28.432H71.3278V30H70.3838Z" fill="#1A1A1A" fill-opacity="0.5"/>
</svg>
